# MagicaVoxel @ Ephtracy

# group
o 

# material
mtllib Sword.mtl
usemtl palette

# normals
vn -1 0 0
vn 1 0 0
vn 0 0 1
vn 0 0 -1
vn 0 -1 0
vn 0 1 0

# texcoords
vt 0.0175781 0.5
vt 0.0214844 0.5
vt 0.0917969 0.5
vt 0.232422 0.5
vt 0.396484 0.5
vt 0.876953 0.5
vt 0.966797 0.5
vt 0.970703 0.5

# verts
v -0.6 1 -0.7
v -0.6 1 -0.8
v -0.6 1.3 -0.7
v -0.6 1.3 -0.8
v -0.5 0.9 -0.7
v -0.5 0.9 -0.8
v -0.5 1 -0.7
v -0.5 1 -0.8
v -0.4 0.8 -0.6
v -0.4 0.8 -0.7
v -0.4 0.8 -0.8
v -0.4 0.8 -0.9
v -0.4 0.9 -0.6
v -0.4 0.9 -0.7
v -0.4 0.9 -0.8
v -0.4 0.9 -0.9
v -0.4 1 -0.6
v -0.4 1 -0.7
v -0.4 1 -0.8
v -0.4 1 -0.9
v -0.4 1.1 -0.6
v -0.4 1.1 -0.7
v -0.4 1.1 -0.8
v -0.4 1.1 -0.9
v -0.4 1.2 -0.7
v -0.4 1.2 -0.8
v -0.3 0.2 -0.6
v -0.3 0.2 -0.9
v -0.3 0.3 -0.6
v -0.3 0.3 -0.9
v -0.3 0.8 -0.7
v -0.3 0.8 -0.8
v -0.3 0.9 -0.6
v -0.3 0.9 -0.7
v -0.3 0.9 -0.8
v -0.3 0.9 -0.9
v -0.3 1 -0.6
v -0.3 1 -0.7
v -0.3 1 -0.8
v -0.3 1 -0.9
v -0.3 1.1 -0.6
v -0.3 1.1 -0.7
v -0.3 1.1 -0.8
v -0.3 1.1 -0.9
v -0.3 1.2 -0.7
v -0.3 1.2 -0.8
v -0.3 1.3 -0.6
v -0.3 1.3 -0.7
v -0.3 1.3 -0.8
v -0.3 1.3 -0.9
v -0.3 3.5 -0.7
v -0.3 3.5 -0.8
v -0.2 0.1 -0.6
v -0.2 0.1 -0.9
v -0.2 0.2 -0.6
v -0.2 0.2 -0.9
v -0.2 0.3 -0.6
v -0.2 0.3 -0.9
v -0.2 0.4 -0.6
v -0.2 0.4 -0.7
v -0.2 0.4 -0.8
v -0.2 0.4 -0.9
v -0.2 0.5 -0.7
v -0.2 0.5 -0.8
v -0.2 0.6 -0.7
v -0.2 0.6 -0.8
v -0.2 0.7 -0.7
v -0.2 0.7 -0.8
v -0.2 0.8 -0.7
v -0.2 0.8 -0.8
v -0.2 1.3 -0.6
v -0.2 1.3 -0.7
v -0.2 1.3 -0.8
v -0.2 1.3 -0.9
v -0.2 1.4 -0.6
v -0.2 1.4 -0.7
v -0.2 1.4 -0.8
v -0.2 1.4 -0.9
v -0.2 3.5 -0.7
v -0.2 3.5 -0.8
v -0.2 3.6 -0.7
v -0.2 3.6 -0.8
v 0.1 0.8 -0.6
v 0.1 0.8 -0.7
v 0.1 0.8 -0.8
v 0.1 0.8 -0.9
v 0.1 0.9 -0.6
v 0.1 0.9 -0.7
v 0.1 0.9 -0.8
v 0.1 0.9 -0.9
v 0.3 1 -0.7
v 0.3 1 -0.8
v 0.3 1.3 -0.7
v 0.3 1.3 -0.8
v -0.5 1 -0.7
v -0.5 1 -0.8
v -0.5 1.3 -0.7
v -0.5 1.3 -0.8
v -0.3 0.8 -0.6
v -0.3 0.8 -0.7
v -0.3 0.8 -0.8
v -0.3 0.8 -0.9
v -0.3 0.9 -0.6
v -0.3 0.9 -0.7
v -0.3 0.9 -0.8
v -0.3 0.9 -0.9
v 5.96046e-08 0.1 -0.6
v 5.96046e-08 0.1 -0.9
v 5.96046e-08 0.2 -0.6
v 5.96046e-08 0.2 -0.9
v 5.96046e-08 0.3 -0.6
v 5.96046e-08 0.3 -0.9
v 5.96046e-08 0.4 -0.6
v 5.96046e-08 0.4 -0.7
v 5.96046e-08 0.4 -0.8
v 5.96046e-08 0.4 -0.9
v 5.96046e-08 0.5 -0.7
v 5.96046e-08 0.5 -0.8
v 5.96046e-08 0.6 -0.7
v 5.96046e-08 0.6 -0.8
v 5.96046e-08 0.7 -0.7
v 5.96046e-08 0.7 -0.8
v 5.96046e-08 0.8 -0.7
v 5.96046e-08 0.8 -0.8
v 5.96046e-08 1.3 -0.6
v 5.96046e-08 1.3 -0.7
v 5.96046e-08 1.3 -0.8
v 5.96046e-08 1.3 -0.9
v 5.96046e-08 1.4 -0.6
v 5.96046e-08 1.4 -0.7
v 5.96046e-08 1.4 -0.8
v 5.96046e-08 1.4 -0.9
v 5.96046e-08 3.5 -0.7
v 5.96046e-08 3.5 -0.8
v 5.96046e-08 3.6 -0.7
v 5.96046e-08 3.6 -0.8
v 0.1 0.2 -0.6
v 0.1 0.2 -0.9
v 0.1 0.3 -0.6
v 0.1 0.3 -0.9
v 0.1 0.8 -0.7
v 0.1 0.8 -0.8
v 0.1 0.9 -0.6
v 0.1 0.9 -0.7
v 0.1 0.9 -0.8
v 0.1 0.9 -0.9
v 0.1 1 -0.6
v 0.1 1 -0.7
v 0.1 1 -0.8
v 0.1 1 -0.9
v 0.1 1.1 -0.6
v 0.1 1.1 -0.7
v 0.1 1.1 -0.8
v 0.1 1.1 -0.9
v 0.1 1.2 -0.7
v 0.1 1.2 -0.8
v 0.1 1.3 -0.6
v 0.1 1.3 -0.7
v 0.1 1.3 -0.8
v 0.1 1.3 -0.9
v 0.1 3.5 -0.7
v 0.1 3.5 -0.8
v 0.2 0.8 -0.6
v 0.2 0.8 -0.7
v 0.2 0.8 -0.8
v 0.2 0.8 -0.9
v 0.2 0.9 -0.6
v 0.2 0.9 -0.7
v 0.2 0.9 -0.8
v 0.2 0.9 -0.9
v 0.2 1 -0.6
v 0.2 1 -0.7
v 0.2 1 -0.8
v 0.2 1 -0.9
v 0.2 1.1 -0.6
v 0.2 1.1 -0.7
v 0.2 1.1 -0.8
v 0.2 1.1 -0.9
v 0.2 1.2 -0.7
v 0.2 1.2 -0.8
v 0.3 0.9 -0.7
v 0.3 0.9 -0.8
v 0.3 1 -0.7
v 0.3 1 -0.8
v 0.4 1 -0.7
v 0.4 1 -0.8
v 0.4 1.3 -0.7
v 0.4 1.3 -0.8
v -0.4 0.8 -0.6
v -0.4 0.9 -0.6
v -0.4 1 -0.6
v -0.4 1.1 -0.6
v -0.3 0.2 -0.6
v -0.3 0.3 -0.6
v -0.3 0.8 -0.6
v -0.3 0.9 -0.6
v -0.3 1 -0.6
v -0.3 1.1 -0.6
v -0.3 1.3 -0.6
v -0.2 0.1 -0.6
v -0.2 0.2 -0.6
v -0.2 0.3 -0.6
v -0.2 0.4 -0.6
v -0.2 1.1 -0.6
v -0.2 1.3 -0.6
v -0.2 1.4 -0.6
v -0.0999999 1.3 -0.6
v -0.0999999 1.4 -0.6
v 5.96046e-08 0.1 -0.6
v 5.96046e-08 0.2 -0.6
v 5.96046e-08 0.3 -0.6
v 5.96046e-08 0.4 -0.6
v 5.96046e-08 1.1 -0.6
v 5.96046e-08 1.3 -0.6
v 5.96046e-08 1.4 -0.6
v 0.1 0.2 -0.6
v 0.1 0.3 -0.6
v 0.1 0.8 -0.6
v 0.1 0.9 -0.6
v 0.1 1 -0.6
v 0.1 1.1 -0.6
v 0.1 1.3 -0.6
v 0.2 0.8 -0.6
v 0.2 0.9 -0.6
v 0.2 1 -0.6
v 0.2 1.1 -0.6
v -0.6 1 -0.7
v -0.6 1.3 -0.7
v -0.5 0.9 -0.7
v -0.5 1 -0.7
v -0.5 1.3 -0.7
v -0.4 0.9 -0.7
v -0.4 1 -0.7
v -0.4 1.1 -0.7
v -0.4 1.2 -0.7
v -0.3 0.8 -0.7
v -0.3 0.9 -0.7
v -0.3 1 -0.7
v -0.3 1.1 -0.7
v -0.3 1.2 -0.7
v -0.3 1.3 -0.7
v -0.3 3.5 -0.7
v -0.2 0.4 -0.7
v -0.2 0.5 -0.7
v -0.2 0.6 -0.7
v -0.2 0.7 -0.7
v -0.2 0.8 -0.7
v -0.2 0.9 -0.7
v -0.2 1.3 -0.7
v -0.2 1.4 -0.7
v -0.2 3.5 -0.7
v -0.2 3.6 -0.7
v -0.0999999 1.4 -0.7
v 5.96046e-08 0.4 -0.7
v 5.96046e-08 0.5 -0.7
v 5.96046e-08 0.6 -0.7
v 5.96046e-08 0.7 -0.7
v 5.96046e-08 0.8 -0.7
v 5.96046e-08 0.9 -0.7
v 5.96046e-08 1.3 -0.7
v 5.96046e-08 1.4 -0.7
v 5.96046e-08 3.5 -0.7
v 5.96046e-08 3.6 -0.7
v 0.1 0.8 -0.7
v 0.1 0.9 -0.7
v 0.1 1 -0.7
v 0.1 1.1 -0.7
v 0.1 1.2 -0.7
v 0.1 1.3 -0.7
v 0.1 3.5 -0.7
v 0.2 0.9 -0.7
v 0.2 1 -0.7
v 0.2 1.1 -0.7
v 0.2 1.2 -0.7
v 0.3 0.9 -0.7
v 0.3 1 -0.7
v 0.3 1.3 -0.7
v 0.4 1 -0.7
v 0.4 1.3 -0.7
v -0.4 0.8 -0.8
v -0.4 0.9 -0.8
v -0.3 0.8 -0.8
v -0.3 0.9 -0.8
v 0.1 0.8 -0.8
v 0.1 0.9 -0.8
v 0.2 0.8 -0.8
v 0.2 0.9 -0.8
v -0.4 0.8 -0.7
v -0.4 0.9 -0.7
v -0.3 0.8 -0.7
v -0.3 0.9 -0.7
v 0.1 0.8 -0.7
v 0.1 0.9 -0.7
v 0.2 0.8 -0.7
v 0.2 0.9 -0.7
v -0.6 1 -0.8
v -0.6 1.3 -0.8
v -0.5 0.9 -0.8
v -0.5 1 -0.8
v -0.5 1.3 -0.8
v -0.4 0.9 -0.8
v -0.4 1 -0.8
v -0.4 1.1 -0.8
v -0.4 1.2 -0.8
v -0.3 0.8 -0.8
v -0.3 0.9 -0.8
v -0.3 1 -0.8
v -0.3 1.1 -0.8
v -0.3 1.2 -0.8
v -0.3 1.3 -0.8
v -0.3 3.5 -0.8
v -0.2 0.4 -0.8
v -0.2 0.5 -0.8
v -0.2 0.6 -0.8
v -0.2 0.7 -0.8
v -0.2 0.8 -0.8
v -0.2 0.9 -0.8
v -0.2 1.3 -0.8
v -0.2 1.4 -0.8
v -0.2 3.5 -0.8
v -0.2 3.6 -0.8
v 5.96046e-08 0.4 -0.8
v 5.96046e-08 0.5 -0.8
v 5.96046e-08 0.6 -0.8
v 5.96046e-08 0.7 -0.8
v 5.96046e-08 0.8 -0.8
v 5.96046e-08 0.9 -0.8
v 5.96046e-08 1.3 -0.8
v 5.96046e-08 1.4 -0.8
v 5.96046e-08 3.5 -0.8
v 5.96046e-08 3.6 -0.8
v 0.1 0.8 -0.8
v 0.1 0.9 -0.8
v 0.1 1 -0.8
v 0.1 1.1 -0.8
v 0.1 1.2 -0.8
v 0.1 1.3 -0.8
v 0.1 3.5 -0.8
v 0.2 0.9 -0.8
v 0.2 1 -0.8
v 0.2 1.1 -0.8
v 0.2 1.2 -0.8
v 0.3 0.9 -0.8
v 0.3 1 -0.8
v 0.3 1.3 -0.8
v 0.4 1 -0.8
v 0.4 1.3 -0.8
v -0.4 0.8 -0.9
v -0.4 0.9 -0.9
v -0.4 1 -0.9
v -0.4 1.1 -0.9
v -0.3 0.2 -0.9
v -0.3 0.3 -0.9
v -0.3 0.8 -0.9
v -0.3 0.9 -0.9
v -0.3 1 -0.9
v -0.3 1.1 -0.9
v -0.3 1.3 -0.9
v -0.2 0.1 -0.9
v -0.2 0.2 -0.9
v -0.2 0.3 -0.9
v -0.2 0.4 -0.9
v -0.2 1.1 -0.9
v -0.2 1.3 -0.9
v -0.2 1.4 -0.9
v 5.96046e-08 0.1 -0.9
v 5.96046e-08 0.2 -0.9
v 5.96046e-08 0.3 -0.9
v 5.96046e-08 0.4 -0.9
v 5.96046e-08 1.1 -0.9
v 5.96046e-08 1.3 -0.9
v 5.96046e-08 1.4 -0.9
v 0.1 0.2 -0.9
v 0.1 0.3 -0.9
v 0.1 0.8 -0.9
v 0.1 0.9 -0.9
v 0.1 1 -0.9
v 0.1 1.1 -0.9
v 0.1 1.3 -0.9
v 0.2 0.8 -0.9
v 0.2 0.9 -0.9
v 0.2 1 -0.9
v 0.2 1.1 -0.9
v -0.2 0.1 -0.6
v 5.96046e-08 0.1 -0.6
v -0.2 0.1 -0.9
v 5.96046e-08 0.1 -0.9
v -0.3 0.2 -0.6
v -0.2 0.2 -0.6
v 5.96046e-08 0.2 -0.6
v 0.1 0.2 -0.6
v -0.3 0.2 -0.9
v -0.2 0.2 -0.9
v 5.96046e-08 0.2 -0.9
v 0.1 0.2 -0.9
v -0.4 0.8 -0.6
v -0.3 0.8 -0.6
v 0.1 0.8 -0.6
v 0.2 0.8 -0.6
v -0.4 0.8 -0.7
v -0.3 0.8 -0.7
v -0.2 0.8 -0.7
v 5.96046e-08 0.8 -0.7
v 0.1 0.8 -0.7
v 0.2 0.8 -0.7
v -0.4 0.8 -0.8
v -0.3 0.8 -0.8
v -0.2 0.8 -0.8
v 5.96046e-08 0.8 -0.8
v 0.1 0.8 -0.8
v 0.2 0.8 -0.8
v -0.4 0.8 -0.9
v -0.3 0.8 -0.9
v 0.1 0.8 -0.9
v 0.2 0.8 -0.9
v -0.3 0.9 -0.6
v 0.1 0.9 -0.6
v -0.5 0.9 -0.7
v -0.4 0.9 -0.7
v -0.3 0.9 -0.7
v -0.2 0.9 -0.7
v 5.96046e-08 0.9 -0.7
v 0.1 0.9 -0.7
v 0.2 0.9 -0.7
v 0.3 0.9 -0.7
v -0.5 0.9 -0.8
v -0.4 0.9 -0.8
v -0.3 0.9 -0.8
v -0.2 0.9 -0.8
v 5.96046e-08 0.9 -0.8
v 0.1 0.9 -0.8
v 0.2 0.9 -0.8
v 0.3 0.9 -0.8
v -0.3 0.9 -0.9
v 0.1 0.9 -0.9
v -0.4 1 -0.6
v -0.3 1 -0.6
v 0.1 1 -0.6
v 0.2 1 -0.6
v -0.6 1 -0.7
v -0.5 1 -0.7
v -0.4 1 -0.7
v -0.3 1 -0.7
v 0.1 1 -0.7
v 0.2 1 -0.7
v 0.3 1 -0.7
v 0.4 1 -0.7
v -0.6 1 -0.8
v -0.5 1 -0.8
v -0.4 1 -0.8
v -0.3 1 -0.8
v 0.1 1 -0.8
v 0.2 1 -0.8
v 0.3 1 -0.8
v 0.4 1 -0.8
v -0.4 1 -0.9
v -0.3 1 -0.9
v 0.1 1 -0.9
v 0.2 1 -0.9
v -0.3 0.3 -0.6
v -0.2 0.3 -0.6
v 5.96046e-08 0.3 -0.6
v 0.1 0.3 -0.6
v -0.3 0.3 -0.9
v -0.2 0.3 -0.9
v 5.96046e-08 0.3 -0.9
v 0.1 0.3 -0.9
v -0.2 0.4 -0.6
v 5.96046e-08 0.4 -0.6
v -0.2 0.4 -0.7
v 5.96046e-08 0.4 -0.7
v -0.2 0.4 -0.8
v 5.96046e-08 0.4 -0.8
v -0.2 0.4 -0.9
v 5.96046e-08 0.4 -0.9
v -0.4 0.9 -0.6
v -0.3 0.9 -0.6
v 0.1 0.9 -0.6
v 0.2 0.9 -0.6
v -0.4 0.9 -0.7
v -0.3 0.9 -0.7
v 0.1 0.9 -0.7
v 0.2 0.9 -0.7
v -0.4 0.9 -0.8
v -0.3 0.9 -0.8
v 0.1 0.9 -0.8
v 0.2 0.9 -0.8
v -0.4 0.9 -0.9
v -0.3 0.9 -0.9
v 0.1 0.9 -0.9
v 0.2 0.9 -0.9
v -0.5 1 -0.7
v -0.4 1 -0.7
v 0.2 1 -0.7
v 0.3 1 -0.7
v -0.5 1 -0.8
v -0.4 1 -0.8
v 0.2 1 -0.8
v 0.3 1 -0.8
v -0.4 1.1 -0.6
v -0.3 1.1 -0.6
v 0.1 1.1 -0.6
v 0.2 1.1 -0.6
v -0.4 1.1 -0.7
v -0.3 1.1 -0.7
v 0.1 1.1 -0.7
v 0.2 1.1 -0.7
v -0.4 1.1 -0.8
v -0.3 1.1 -0.8
v 0.1 1.1 -0.8
v 0.2 1.1 -0.8
v -0.4 1.1 -0.9
v -0.3 1.1 -0.9
v 0.1 1.1 -0.9
v 0.2 1.1 -0.9
v -0.4 1.2 -0.7
v -0.3 1.2 -0.7
v 0.1 1.2 -0.7
v 0.2 1.2 -0.7
v -0.4 1.2 -0.8
v -0.3 1.2 -0.8
v 0.1 1.2 -0.8
v 0.2 1.2 -0.8
v -0.3 1.3 -0.6
v -0.2 1.3 -0.6
v 5.96046e-08 1.3 -0.6
v 0.1 1.3 -0.6
v -0.6 1.3 -0.7
v -0.5 1.3 -0.7
v -0.3 1.3 -0.7
v -0.2 1.3 -0.7
v 5.96046e-08 1.3 -0.7
v 0.1 1.3 -0.7
v 0.3 1.3 -0.7
v 0.4 1.3 -0.7
v -0.6 1.3 -0.8
v -0.5 1.3 -0.8
v -0.3 1.3 -0.8
v -0.2 1.3 -0.8
v 5.96046e-08 1.3 -0.8
v 0.1 1.3 -0.8
v 0.3 1.3 -0.8
v 0.4 1.3 -0.8
v -0.3 1.3 -0.9
v -0.2 1.3 -0.9
v 5.96046e-08 1.3 -0.9
v 0.1 1.3 -0.9
v -0.2 1.4 -0.6
v -0.0999999 1.4 -0.6
v 5.96046e-08 1.4 -0.6
v -0.2 1.4 -0.7
v -0.0999999 1.4 -0.7
v 5.96046e-08 1.4 -0.7
v -0.2 1.4 -0.8
v 5.96046e-08 1.4 -0.8
v -0.2 1.4 -0.9
v 5.96046e-08 1.4 -0.9
v -0.3 3.5 -0.7
v -0.2 3.5 -0.7
v 5.96046e-08 3.5 -0.7
v 0.1 3.5 -0.7
v -0.3 3.5 -0.8
v -0.2 3.5 -0.8
v 5.96046e-08 3.5 -0.8
v 0.1 3.5 -0.8
v -0.2 3.6 -0.7
v 5.96046e-08 3.6 -0.7
v -0.2 3.6 -0.8
v 5.96046e-08 3.6 -0.8

# faces
f 3/2/1 2/2/1 1/2/1
f 4/2/1 2/2/1 3/2/1
f 7/2/1 6/2/1 5/2/1
f 8/2/1 6/2/1 7/2/1
f 13/2/1 10/2/1 9/2/1
f 14/2/1 10/2/1 13/2/1
f 15/2/1 12/2/1 11/2/1
f 16/2/1 12/2/1 15/2/1
f 21/2/1 18/2/1 17/2/1
f 21/2/1 20/2/1 19/2/1
f 21/2/1 19/2/1 18/2/1
f 22/2/1 20/2/1 21/2/1
f 23/2/1 20/2/1 22/2/1
f 24/2/1 20/2/1 23/2/1
f 25/2/1 23/2/1 22/2/1
f 26/2/1 23/2/1 25/2/1
f 29/4/1 28/4/1 27/4/1
f 30/4/1 28/4/1 29/4/1
f 34/2/1 32/2/1 31/2/1
f 35/2/1 32/2/1 34/2/1
f 37/2/1 34/2/1 33/2/1
f 38/2/1 34/2/1 37/2/1
f 39/2/1 36/2/1 35/2/1
f 40/2/1 36/2/1 39/2/1
f 45/2/1 42/2/1 41/2/1
f 46/2/1 44/2/1 43/2/1
f 47/2/1 45/2/1 41/2/1
f 47/2/1 46/2/1 45/2/1
f 48/2/1 46/2/1 47/2/1
f 49/2/1 44/2/1 46/2/1
f 49/2/1 46/2/1 48/2/1
f 50/2/1 44/2/1 49/2/1
f 51/8/1 49/8/1 48/8/1
f 52/8/1 49/8/1 51/8/1
f 55/4/1 54/4/1 53/4/1
f 56/4/1 54/4/1 55/4/1
f 59/4/1 58/4/1 57/4/1
f 60/4/1 58/4/1 59/4/1
f 61/4/1 58/4/1 60/4/1
f 62/4/1 58/4/1 61/4/1
f 63/6/1 61/6/1 60/6/1
f 64/6/1 61/6/1 63/6/1
f 65/5/1 64/5/1 63/5/1
f 66/5/1 64/5/1 65/5/1
f 67/6/1 66/6/1 65/6/1
f 68/6/1 66/6/1 67/6/1
f 69/5/1 68/5/1 67/5/1
f 70/5/1 68/5/1 69/5/1
f 75/2/1 72/2/1 71/2/1
f 76/2/1 72/2/1 75/2/1
f 77/2/1 74/2/1 73/2/1
f 78/2/1 74/2/1 77/2/1
f 81/8/1 80/8/1 79/8/1
f 82/8/1 80/8/1 81/8/1
f 87/2/1 84/2/1 83/2/1
f 88/2/1 84/2/1 87/2/1
f 89/2/1 86/2/1 85/2/1
f 90/2/1 86/2/1 89/2/1
f 93/2/1 92/2/1 91/2/1
f 94/2/1 92/2/1 93/2/1
f 95/2/2 96/2/2 97/2/2
f 97/2/2 96/2/2 98/2/2
f 99/2/2 100/2/2 103/2/2
f 103/2/2 100/2/2 104/2/2
f 101/2/2 102/2/2 105/2/2
f 105/2/2 102/2/2 106/2/2
f 107/4/2 108/4/2 109/4/2
f 109/4/2 108/4/2 110/4/2
f 111/4/2 112/4/2 113/4/2
f 113/4/2 112/4/2 114/4/2
f 114/4/2 112/4/2 115/4/2
f 115/4/2 112/4/2 116/4/2
f 114/6/2 115/6/2 117/6/2
f 117/6/2 115/6/2 118/6/2
f 117/5/2 118/5/2 119/5/2
f 119/5/2 118/5/2 120/5/2
f 119/6/2 120/6/2 121/6/2
f 121/6/2 120/6/2 122/6/2
f 121/5/2 122/5/2 123/5/2
f 123/5/2 122/5/2 124/5/2
f 125/1/2 126/1/2 129/1/2
f 129/1/2 126/1/2 130/1/2
f 127/2/2 128/2/2 131/2/2
f 131/2/2 128/2/2 132/2/2
f 133/8/2 134/8/2 135/8/2
f 135/8/2 134/8/2 136/8/2
f 137/4/2 138/4/2 139/4/2
f 139/4/2 138/4/2 140/4/2
f 141/2/2 142/2/2 144/2/2
f 144/2/2 142/2/2 145/2/2
f 143/2/2 144/2/2 147/2/2
f 147/2/2 144/2/2 148/2/2
f 145/2/2 146/2/2 149/2/2
f 149/2/2 146/2/2 150/2/2
f 151/2/2 152/2/2 155/2/2
f 153/2/2 154/2/2 156/2/2
f 151/2/2 155/2/2 157/2/2
f 155/2/2 156/2/2 157/2/2
f 157/2/2 156/2/2 158/2/2
f 156/2/2 154/2/2 159/2/2
f 158/2/2 156/2/2 159/2/2
f 159/2/2 154/2/2 160/2/2
f 158/8/2 159/8/2 161/8/2
f 161/8/2 159/8/2 162/8/2
f 163/2/2 164/2/2 167/2/2
f 167/2/2 164/2/2 168/2/2
f 165/2/2 166/2/2 169/2/2
f 169/2/2 166/2/2 170/2/2
f 171/2/2 172/2/2 175/2/2
f 173/2/2 174/2/2 175/2/2
f 172/2/2 173/2/2 175/2/2
f 175/2/2 174/2/2 176/2/2
f 176/2/2 174/2/2 177/2/2
f 177/2/2 174/2/2 178/2/2
f 176/2/2 177/2/2 179/2/2
f 179/2/2 177/2/2 180/2/2
f 181/2/2 182/2/2 183/2/2
f 183/2/2 182/2/2 184/2/2
f 185/2/2 186/2/2 187/2/2
f 187/2/2 186/2/2 188/2/2
f 195/2/3 190/2/3 189/2/3
f 196/2/3 190/2/3 195/2/3
f 197/2/3 192/2/3 191/2/3
f 198/2/3 192/2/3 197/2/3
f 201/4/3 194/4/3 193/4/3
f 202/4/3 194/4/3 201/4/3
f 204/2/3 198/2/3 197/2/3
f 204/2/3 199/2/3 198/2/3
f 204/2/3 197/2/3 196/2/3
f 205/2/3 199/2/3 204/2/3
f 207/3/3 205/3/3 204/3/3
f 207/2/3 206/2/3 205/2/3
f 208/2/3 206/2/3 207/2/3
f 209/4/3 201/4/3 200/4/3
f 210/5/3 202/5/3 201/5/3
f 210/4/3 201/4/3 209/4/3
f 211/4/3 203/4/3 202/4/3
f 211/5/3 202/5/3 210/5/3
f 212/4/3 203/4/3 211/4/3
f 213/2/3 204/2/3 196/2/3
f 213/3/3 207/3/3 204/3/3
f 214/1/3 208/1/3 207/1/3
f 214/3/3 207/3/3 213/3/3
f 215/1/3 208/1/3 214/1/3
f 216/4/3 211/4/3 210/4/3
f 217/4/3 211/4/3 216/4/3
f 219/2/3 214/2/3 213/2/3
f 219/2/3 213/2/3 196/2/3
f 220/2/3 214/2/3 219/2/3
f 221/2/3 214/2/3 220/2/3
f 222/2/3 214/2/3 221/2/3
f 223/2/3 219/2/3 218/2/3
f 224/2/3 219/2/3 223/2/3
f 225/2/3 221/2/3 220/2/3
f 226/2/3 221/2/3 225/2/3
f 230/2/3 228/2/3 227/2/3
f 231/2/3 228/2/3 230/2/3
f 232/2/3 230/2/3 229/2/3
f 233/2/3 230/2/3 232/2/3
f 237/2/3 233/2/3 232/2/3
f 238/2/3 233/2/3 237/2/3
f 239/2/3 235/2/3 234/2/3
f 240/2/3 235/2/3 239/2/3
f 247/2/3 237/2/3 236/2/3
f 248/2/3 237/2/3 247/2/3
f 249/8/3 242/8/3 241/8/3
f 250/8/3 242/8/3 249/8/3
f 251/8/3 242/8/3 250/8/3
f 253/7/3 251/7/3 250/7/3
f 254/6/3 244/6/3 243/6/3
f 255/5/3 245/5/3 244/5/3
f 255/6/3 244/6/3 254/6/3
f 256/6/3 246/6/3 245/6/3
f 256/5/3 245/5/3 255/5/3
f 257/5/3 247/5/3 246/5/3
f 257/6/3 246/6/3 256/6/3
f 258/6/3 248/6/3 247/6/3
f 258/5/3 247/5/3 257/5/3
f 259/6/3 248/6/3 258/6/3
f 261/7/3 251/7/3 253/7/3
f 262/8/3 252/8/3 251/8/3
f 262/7/3 251/7/3 261/7/3
f 263/8/3 252/8/3 262/8/3
f 264/2/3 259/2/3 258/2/3
f 265/2/3 259/2/3 264/2/3
f 269/8/3 262/8/3 261/8/3
f 269/8/3 261/8/3 260/8/3
f 270/8/3 262/8/3 269/8/3
f 271/2/3 266/2/3 265/2/3
f 272/2/3 266/2/3 271/2/3
f 273/2/3 268/2/3 267/2/3
f 274/2/3 268/2/3 273/2/3
f 275/2/3 272/2/3 271/2/3
f 276/2/3 272/2/3 275/2/3
f 278/2/3 277/2/3 276/2/3
f 279/2/3 277/2/3 278/2/3
f 282/2/3 281/2/3 280/2/3
f 283/2/3 281/2/3 282/2/3
f 286/2/3 285/2/3 284/2/3
f 287/2/3 285/2/3 286/2/3
f 288/2/4 289/2/4 290/2/4
f 290/2/4 289/2/4 291/2/4
f 292/2/4 293/2/4 294/2/4
f 294/2/4 293/2/4 295/2/4
f 296/2/4 297/2/4 299/2/4
f 299/2/4 297/2/4 300/2/4
f 298/2/4 299/2/4 301/2/4
f 301/2/4 299/2/4 302/2/4
f 301/2/4 302/2/4 306/2/4
f 306/2/4 302/2/4 307/2/4
f 303/2/4 304/2/4 308/2/4
f 308/2/4 304/2/4 309/2/4
f 305/2/4 306/2/4 316/2/4
f 316/2/4 306/2/4 317/2/4
f 310/8/4 311/8/4 318/8/4
f 318/8/4 311/8/4 319/8/4
f 319/8/4 311/8/4 320/8/4
f 312/6/4 313/6/4 322/6/4
f 313/5/4 314/5/4 323/5/4
f 322/6/4 313/6/4 323/6/4
f 314/6/4 315/6/4 324/6/4
f 323/5/4 314/5/4 324/5/4
f 315/5/4 316/5/4 325/5/4
f 324/6/4 315/6/4 325/6/4
f 316/6/4 317/6/4 326/6/4
f 325/5/4 316/5/4 326/5/4
f 326/6/4 317/6/4 327/6/4
f 319/7/4 320/7/4 329/7/4
f 320/8/4 321/8/4 330/8/4
f 329/7/4 320/7/4 330/7/4
f 330/8/4 321/8/4 331/8/4
f 326/2/4 327/2/4 332/2/4
f 332/2/4 327/2/4 333/2/4
f 329/8/4 330/8/4 337/8/4
f 328/8/4 329/8/4 337/8/4
f 337/8/4 330/8/4 338/8/4
f 333/2/4 334/2/4 339/2/4
f 339/2/4 334/2/4 340/2/4
f 335/2/4 336/2/4 341/2/4
f 341/2/4 336/2/4 342/2/4
f 339/2/4 340/2/4 343/2/4
f 343/2/4 340/2/4 344/2/4
f 344/2/4 345/2/4 346/2/4
f 346/2/4 345/2/4 347/2/4
f 348/2/4 349/2/4 354/2/4
f 354/2/4 349/2/4 355/2/4
f 350/2/4 351/2/4 356/2/4
f 356/2/4 351/2/4 357/2/4
f 352/4/4 353/4/4 360/4/4
f 360/4/4 353/4/4 361/4/4
f 356/2/4 357/2/4 363/2/4
f 357/2/4 358/2/4 363/2/4
f 355/2/4 356/2/4 363/2/4
f 363/2/4 358/2/4 364/2/4
f 359/4/4 360/4/4 366/4/4
f 360/5/4 361/5/4 367/5/4
f 366/4/4 360/4/4 367/4/4
f 361/4/4 362/4/4 368/4/4
f 367/5/4 361/5/4 368/5/4
f 368/4/4 362/4/4 369/4/4
f 355/2/4 363/2/4 370/2/4
f 363/3/4 364/3/4 370/3/4
f 364/2/4 365/2/4 371/2/4
f 370/3/4 364/3/4 371/3/4
f 371/2/4 365/2/4 372/2/4
f 367/4/4 368/4/4 373/4/4
f 373/4/4 368/4/4 374/4/4
f 355/2/4 370/2/4 376/2/4
f 370/2/4 371/2/4 376/2/4
f 376/2/4 371/2/4 377/2/4
f 377/2/4 371/2/4 378/2/4
f 378/2/4 371/2/4 379/2/4
f 375/2/4 376/2/4 380/2/4
f 380/2/4 376/2/4 381/2/4
f 377/2/4 378/2/4 382/2/4
f 382/2/4 378/2/4 383/2/4
f 386/4/5 385/4/5 384/4/5
f 387/4/5 385/4/5 386/4/5
f 392/4/5 389/4/5 388/4/5
f 393/4/5 389/4/5 392/4/5
f 394/4/5 391/4/5 390/4/5
f 395/4/5 391/4/5 394/4/5
f 400/2/5 397/2/5 396/2/5
f 401/2/5 397/2/5 400/2/5
f 404/2/5 399/2/5 398/2/5
f 405/2/5 399/2/5 404/2/5
f 407/2/5 402/2/5 401/2/5
f 408/2/5 402/2/5 407/2/5
f 409/2/5 404/2/5 403/2/5
f 410/2/5 404/2/5 409/2/5
f 412/2/5 407/2/5 406/2/5
f 413/2/5 407/2/5 412/2/5
f 414/2/5 411/2/5 410/2/5
f 415/2/5 411/2/5 414/2/5
f 420/2/5 417/2/5 416/2/5
f 421/2/5 417/2/5 420/2/5
f 422/2/5 417/2/5 421/2/5
f 423/2/5 417/2/5 422/2/5
f 426/2/5 419/2/5 418/2/5
f 426/2/5 420/2/5 419/2/5
f 427/2/5 420/2/5 426/2/5
f 428/2/5 420/2/5 427/2/5
f 431/2/5 425/2/5 424/2/5
f 431/2/5 424/2/5 423/2/5
f 432/2/5 425/2/5 431/2/5
f 433/2/5 425/2/5 432/2/5
f 434/2/5 430/2/5 429/2/5
f 434/2/5 429/2/5 428/2/5
f 434/2/5 431/2/5 430/2/5
f 435/2/5 431/2/5 434/2/5
f 442/2/5 437/2/5 436/2/5
f 443/2/5 437/2/5 442/2/5
f 444/2/5 439/2/5 438/2/5
f 445/2/5 439/2/5 444/2/5
f 448/2/5 441/2/5 440/2/5
f 449/2/5 441/2/5 448/2/5
f 454/2/5 447/2/5 446/2/5
f 455/2/5 447/2/5 454/2/5
f 456/2/5 451/2/5 450/2/5
f 457/2/5 451/2/5 456/2/5
f 458/2/5 453/2/5 452/2/5
f 459/2/5 453/2/5 458/2/5
f 460/4/6 461/4/6 464/4/6
f 464/4/6 461/4/6 465/4/6
f 462/4/6 463/4/6 466/4/6
f 466/4/6 463/4/6 467/4/6
f 468/4/6 469/4/6 470/4/6
f 470/4/6 469/4/6 471/4/6
f 472/4/6 473/4/6 474/4/6
f 474/4/6 473/4/6 475/4/6
f 476/2/6 477/2/6 480/2/6
f 480/2/6 477/2/6 481/2/6
f 478/2/6 479/2/6 482/2/6
f 482/2/6 479/2/6 483/2/6
f 484/2/6 485/2/6 488/2/6
f 488/2/6 485/2/6 489/2/6
f 486/2/6 487/2/6 490/2/6
f 490/2/6 487/2/6 491/2/6
f 492/2/6 493/2/6 496/2/6
f 496/2/6 493/2/6 497/2/6
f 494/2/6 495/2/6 498/2/6
f 498/2/6 495/2/6 499/2/6
f 500/2/6 501/2/6 504/2/6
f 504/2/6 501/2/6 505/2/6
f 502/2/6 503/2/6 506/2/6
f 506/2/6 503/2/6 507/2/6
f 508/2/6 509/2/6 512/2/6
f 512/2/6 509/2/6 513/2/6
f 510/2/6 511/2/6 514/2/6
f 514/2/6 511/2/6 515/2/6
f 516/2/6 517/2/6 520/2/6
f 520/2/6 517/2/6 521/2/6
f 518/2/6 519/2/6 522/2/6
f 522/2/6 519/2/6 523/2/6
f 524/2/6 525/2/6 530/2/6
f 530/2/6 525/2/6 531/2/6
f 526/2/6 527/2/6 532/2/6
f 532/2/6 527/2/6 533/2/6
f 528/2/6 529/2/6 536/2/6
f 536/2/6 529/2/6 537/2/6
f 534/2/6 535/2/6 542/2/6
f 542/2/6 535/2/6 543/2/6
f 538/2/6 539/2/6 544/2/6
f 544/2/6 539/2/6 545/2/6
f 540/2/6 541/2/6 546/2/6
f 546/2/6 541/2/6 547/2/6
f 548/2/6 549/2/6 551/2/6
f 549/1/6 550/1/6 552/1/6
f 551/2/6 549/2/6 552/2/6
f 552/1/6 550/1/6 553/1/6
f 554/2/6 555/2/6 556/2/6
f 556/2/6 555/2/6 557/2/6
f 558/8/6 559/8/6 562/8/6
f 562/8/6 559/8/6 563/8/6
f 560/8/6 561/8/6 564/8/6
f 564/8/6 561/8/6 565/8/6
f 566/8/6 567/8/6 568/8/6
f 568/8/6 567/8/6 569/8/6
