# MagicaVoxel @ Ephtracy

# group
o 

# material
mtllib Bed 2.mtl
usemtl palette

# normals
vn -1 0 0
vn 1 0 0
vn 0 0 1
vn 0 0 -1
vn 0 -1 0
vn 0 1 0

# texcoords
vt 0.369141 0.5
vt 0.958984 0.5
vt 0.966797 0.5
vt 0.982422 0.5
vt 0.986328 0.5

# verts
v -2.1 0 3.8
v -2.1 0 3.5
v -2.1 0 -3.4
v -2.1 0 -3.7
v -2.1 0.5 3.5
v -2.1 0.5 -3.4
v -2.1 1.1 3.8
v -2.1 1.1 -3.7
v -2 1.1 3.7
v -2 1.1 -3.6
v -2 1.2 -1.1
v -2 1.2 -3.5
v -2 1.2 -3.6
v -2 1.3 3.7
v -2 1.3 -0.2
v -2 1.3 -0.3
v -2 1.3 -1
v -2 1.3 -1.3
v -2 1.3 -3.4
v -2 1.7 3.7
v -2 1.7 -0.2
v -2 1.7 -0.3
v -2 1.7 -1
v -2 1.7 -1.1
v -2 1.7 -1.3
v -2 1.7 -3.4
v -2 1.7 -3.5
v 2.1 0 3.8
v 2.1 0 3.5
v 2.1 0 -3.4
v 2.1 0 -3.7
v 2.1 0.5 3.8
v 2.1 0.5 3.5
v 2.1 0.5 -3.4
v 2.1 0.5 -3.7
v -1.8 0 3.8
v -1.8 0 3.5
v -1.8 0 -3.4
v -1.8 0 -3.7
v -1.8 0.5 3.8
v -1.8 0.5 3.5
v -1.8 0.5 -3.4
v -1.8 0.5 -3.7
v 2.3 1.1 3.7
v 2.3 1.1 -3.6
v 2.3 1.2 -1.1
v 2.3 1.2 -3.5
v 2.3 1.2 -3.6
v 2.3 1.3 3.7
v 2.3 1.3 -0.2
v 2.3 1.3 -0.3
v 2.3 1.3 -1
v 2.3 1.3 -1.3
v 2.3 1.3 -3.4
v 2.3 1.7 3.7
v 2.3 1.7 -0.2
v 2.3 1.7 -0.3
v 2.3 1.7 -1
v 2.3 1.7 -1.1
v 2.3 1.7 -1.3
v 2.3 1.7 -3.4
v 2.3 1.7 -3.5
v 2.4 0 3.8
v 2.4 0 3.5
v 2.4 0 -3.4
v 2.4 0 -3.7
v 2.4 0.5 3.5
v 2.4 0.5 -3.4
v 2.4 1.1 3.8
v 2.4 1.1 -3.7
v -2.1 0 3.8
v -2.1 1.1 3.8
v -1.8 0 3.8
v -1.8 0.5 3.8
v 2.1 0 3.8
v 2.1 0.5 3.8
v 2.4 0 3.8
v 2.4 1.1 3.8
v -2 1.1 3.7
v -2 1.3 3.7
v -2 1.7 3.7
v 2.3 1.1 3.7
v 2.3 1.3 3.7
v 2.3 1.7 3.7
v -2.1 0 -3.4
v -2.1 0.5 -3.4
v -1.8 0 -3.4
v -1.8 0.5 -3.4
v 2.1 0 -3.4
v 2.1 0.5 -3.4
v 2.4 0 -3.4
v 2.4 0.5 -3.4
v -2.1 0 3.5
v -2.1 0.5 3.5
v -1.8 0 3.5
v -1.8 0.5 3.5
v 2.1 0 3.5
v 2.1 0.5 3.5
v 2.4 0 3.5
v 2.4 0.5 3.5
v -2 1.2 -3.5
v -2 1.7 -3.5
v 2.3 1.2 -3.5
v 2.3 1.7 -3.5
v -2 1.1 -3.6
v -2 1.2 -3.6
v 2.3 1.1 -3.6
v 2.3 1.2 -3.6
v -2.1 0 -3.7
v -2.1 1.1 -3.7
v -1.8 0 -3.7
v -1.8 0.5 -3.7
v 2.1 0 -3.7
v 2.1 0.5 -3.7
v 2.4 0 -3.7
v 2.4 1.1 -3.7
v -2.1 0 3.8
v -1.8 0 3.8
v 2.1 0 3.8
v 2.4 0 3.8
v -2.1 0 3.5
v -1.8 0 3.5
v 2.1 0 3.5
v 2.4 0 3.5
v -2.1 0 -3.4
v -1.8 0 -3.4
v 2.1 0 -3.4
v 2.4 0 -3.4
v -2.1 0 -3.7
v -1.8 0 -3.7
v 2.1 0 -3.7
v 2.4 0 -3.7
v -1.8 0.5 3.8
v 2.1 0.5 3.8
v -2.1 0.5 3.5
v -1.8 0.5 3.5
v 2.1 0.5 3.5
v 2.4 0.5 3.5
v -2.1 0.5 -3.4
v -1.8 0.5 -3.4
v 2.1 0.5 -3.4
v 2.4 0.5 -3.4
v -1.8 0.5 -3.7
v 2.1 0.5 -3.7
v -2.1 1.1 3.8
v 2.4 1.1 3.8
v -2 1.1 3.7
v 2.3 1.1 3.7
v -2 1.1 -3.6
v 2.3 1.1 -3.6
v -2.1 1.1 -3.7
v 2.4 1.1 -3.7
v -2 1.2 -3.5
v 2.3 1.2 -3.5
v -2 1.2 -3.6
v 2.3 1.2 -3.6
v -2 1.7 3.7
v 2.3 1.7 3.7
v -2 1.7 -0.2
v 2.3 1.7 -0.2
v -2 1.7 -0.3
v 2.3 1.7 -0.3
v -2 1.7 -1
v 2.3 1.7 -1
v -2 1.7 -1.1
v 2.3 1.7 -1.1
v -2 1.7 -1.3
v -1.4 1.7 -1.3
v -1.2 1.7 -1.3
v 1.5 1.7 -1.3
v 1.7 1.7 -1.3
v 2.3 1.7 -1.3
v -1.2 1.7 -2.8
v 1.5 1.7 -2.8
v -1.4 1.7 -3
v 1.7 1.7 -3
v -2 1.7 -3.4
v 2.3 1.7 -3.4
v -2 1.7 -3.5
v 2.3 1.7 -3.5

# faces
f 5/1/1 2/1/1 1/1/1
f 6/1/1 4/1/1 3/1/1
f 7/1/1 5/1/1 1/1/1
f 7/1/1 6/1/1 5/1/1
f 8/1/1 4/1/1 6/1/1
f 8/1/1 6/1/1 7/1/1
f 11/5/1 10/5/1 9/5/1
f 12/5/1 10/5/1 11/5/1
f 13/5/1 10/5/1 12/5/1
f 14/5/1 11/5/1 9/5/1
f 15/5/1 11/5/1 14/5/1
f 16/5/1 11/5/1 15/5/1
f 17/5/1 11/5/1 16/5/1
f 18/3/1 12/3/1 11/3/1
f 19/3/1 12/3/1 18/3/1
f 20/4/1 15/4/1 14/4/1
f 21/5/1 16/5/1 15/5/1
f 21/4/1 15/4/1 20/4/1
f 22/4/1 17/4/1 16/4/1
f 22/5/1 16/5/1 21/5/1
f 23/5/1 11/5/1 17/5/1
f 23/4/1 17/4/1 22/4/1
f 24/3/1 18/3/1 11/3/1
f 24/5/1 11/5/1 23/5/1
f 25/2/1 19/2/1 18/2/1
f 25/3/1 18/3/1 24/3/1
f 26/3/1 12/3/1 19/3/1
f 26/2/1 19/2/1 25/2/1
f 27/3/1 12/3/1 26/3/1
f 32/1/1 29/1/1 28/1/1
f 33/1/1 29/1/1 32/1/1
f 34/1/1 31/1/1 30/1/1
f 35/1/1 31/1/1 34/1/1
f 36/1/2 37/1/2 40/1/2
f 40/1/2 37/1/2 41/1/2
f 38/1/2 39/1/2 42/1/2
f 42/1/2 39/1/2 43/1/2
f 44/5/2 45/5/2 46/5/2
f 46/5/2 45/5/2 47/5/2
f 47/5/2 45/5/2 48/5/2
f 44/5/2 46/5/2 49/5/2
f 49/5/2 46/5/2 50/5/2
f 50/5/2 46/5/2 51/5/2
f 51/5/2 46/5/2 52/5/2
f 46/3/2 47/3/2 53/3/2
f 53/3/2 47/3/2 54/3/2
f 49/4/2 50/4/2 55/4/2
f 50/5/2 51/5/2 56/5/2
f 55/4/2 50/4/2 56/4/2
f 51/4/2 52/4/2 57/4/2
f 56/5/2 51/5/2 57/5/2
f 52/5/2 46/5/2 58/5/2
f 57/4/2 52/4/2 58/4/2
f 46/3/2 53/3/2 59/3/2
f 58/5/2 46/5/2 59/5/2
f 53/2/2 54/2/2 60/2/2
f 59/3/2 53/3/2 60/3/2
f 54/3/2 47/3/2 61/3/2
f 60/2/2 54/2/2 61/2/2
f 61/3/2 47/3/2 62/3/2
f 63/1/2 64/1/2 67/1/2
f 65/1/2 66/1/2 68/1/2
f 63/1/2 67/1/2 69/1/2
f 67/1/2 68/1/2 69/1/2
f 68/1/2 66/1/2 70/1/2
f 69/1/2 68/1/2 70/1/2
f 73/1/3 72/1/3 71/1/3
f 74/1/3 72/1/3 73/1/3
f 76/1/3 72/1/3 74/1/3
f 77/1/3 76/1/3 75/1/3
f 78/1/3 72/1/3 76/1/3
f 78/1/3 76/1/3 77/1/3
f 82/5/3 80/5/3 79/5/3
f 83/4/3 81/4/3 80/4/3
f 83/5/3 80/5/3 82/5/3
f 84/4/3 81/4/3 83/4/3
f 87/1/3 86/1/3 85/1/3
f 88/1/3 86/1/3 87/1/3
f 91/1/3 90/1/3 89/1/3
f 92/1/3 90/1/3 91/1/3
f 93/1/4 94/1/4 95/1/4
f 95/1/4 94/1/4 96/1/4
f 97/1/4 98/1/4 99/1/4
f 99/1/4 98/1/4 100/1/4
f 101/3/4 102/3/4 103/3/4
f 103/3/4 102/3/4 104/3/4
f 105/5/4 106/5/4 107/5/4
f 107/5/4 106/5/4 108/5/4
f 109/1/4 110/1/4 111/1/4
f 111/1/4 110/1/4 112/1/4
f 112/1/4 110/1/4 114/1/4
f 113/1/4 114/1/4 115/1/4
f 114/1/4 110/1/4 116/1/4
f 115/1/4 114/1/4 116/1/4
f 121/1/5 118/1/5 117/1/5
f 122/1/5 118/1/5 121/1/5
f 123/1/5 120/1/5 119/1/5
f 124/1/5 120/1/5 123/1/5
f 129/1/5 126/1/5 125/1/5
f 130/1/5 126/1/5 129/1/5
f 131/1/5 128/1/5 127/1/5
f 132/1/5 128/1/5 131/1/5
f 136/1/5 134/1/5 133/1/5
f 137/1/5 134/1/5 136/1/5
f 139/1/5 136/1/5 135/1/5
f 139/1/5 138/1/5 137/1/5
f 139/1/5 137/1/5 136/1/5
f 140/1/5 138/1/5 139/1/5
f 141/1/5 138/1/5 140/1/5
f 142/1/5 138/1/5 141/1/5
f 143/1/5 141/1/5 140/1/5
f 144/1/5 141/1/5 143/1/5
f 145/1/6 146/1/6 147/1/6
f 147/1/6 146/1/6 148/1/6
f 145/1/6 147/1/6 149/1/6
f 148/1/6 146/1/6 150/1/6
f 145/1/6 149/1/6 151/1/6
f 149/1/6 150/1/6 151/1/6
f 150/1/6 146/1/6 152/1/6
f 151/1/6 150/1/6 152/1/6
f 153/5/6 154/5/6 155/5/6
f 155/5/6 154/5/6 156/5/6
f 157/4/6 158/4/6 159/4/6
f 159/4/6 158/4/6 160/4/6
f 159/5/6 160/5/6 161/5/6
f 161/5/6 160/5/6 162/5/6
f 161/4/6 162/4/6 163/4/6
f 163/4/6 162/4/6 164/4/6
f 163/5/6 164/5/6 165/5/6
f 165/5/6 164/5/6 166/5/6
f 165/3/6 166/3/6 167/3/6
f 167/3/6 166/3/6 168/3/6
f 168/3/6 166/3/6 169/3/6
f 169/3/6 166/3/6 170/3/6
f 170/3/6 166/3/6 171/3/6
f 171/3/6 166/3/6 172/3/6
f 168/3/6 169/3/6 173/3/6
f 169/2/6 170/2/6 173/2/6
f 170/3/6 171/3/6 174/3/6
f 173/2/6 170/2/6 174/2/6
f 167/2/6 168/2/6 175/2/6
f 168/3/6 173/3/6 175/3/6
f 173/3/6 174/3/6 175/3/6
f 174/3/6 171/3/6 176/3/6
f 175/3/6 174/3/6 176/3/6
f 171/2/6 172/2/6 176/2/6
f 167/2/6 175/2/6 177/2/6
f 175/2/6 176/2/6 177/2/6
f 176/2/6 172/2/6 178/2/6
f 177/2/6 176/2/6 178/2/6
f 177/3/6 178/3/6 179/3/6
f 179/3/6 178/3/6 180/3/6
